<svg width="24" height="184" viewBox="0 0 24 184" fill="none" xmlns="http://www.w3.org/2000/svg"><path d="M12 .5c2.431 0 5.333.604 7.61 2.026 2.257 1.409 3.89 3.609 3.89 6.862v126.224c0 3.337-1.078 5.513-2.98 6.88-1.935 1.392-4.807 2.008-8.52 2.008-3.265 0-6.15-.612-8.203-2.015C1.773 141.103.5 138.917.5 135.612V9.388c0-3.253 1.633-5.453 3.89-6.862C6.667 1.104 9.569.5 12 .5Z" fill="url(#1kjjjp0qna)" stroke="#42946E"/><path d="M5 139.141a1 1 0 0 1 1-1h12a1 1 0 0 1 1 1v1.048a1 1 0 0 1-1 1H6a1 1 0 0 1-1-1v-1.048Z" stroke="#42946E"/><path opacity=".5" d="M24 174.944c0-7.487-5.632-31.312-6.411-34.573a.486.486 0 0 0-.483-.371H6.878a.481.481 0 0 0-.476.351C5.589 143.279 0 163.813 0 174.944 0 180.377 2 184 12 184s12-4.297 12-9.056Z" fill="url(#xpj05vtwdb)"/><path d="M17 7.5a.5.5 0 0 1 1 0v115a.5.5 0 0 1-1 0V7.5Zm-11 0a.5.5 0 0 1 1 0v115a.5.5 0 0 1-1 0V7.5Z" fill="#26543F"/><path d="M20 130.186v-2.224a1 1 0 0 0-1-1H5a1 1 0 0 0-1 1v2.224c0 .695.364 1.338 1.006 1.605 1.249.519 3.633 1.268 6.994 1.268 3.36 0 5.745-.749 6.994-1.268.642-.267 1.006-.91 1.006-1.605Z" fill="#B9DFCD"/><path fill-rule="evenodd" clip-rule="evenodd" d="M20 9.5a.5.5 0 0 1 1 0v24a.5.5 0 0 1-1 0v-24Zm.5 37.181a.5.5 0 0 0-.5.5v21.357a.5.5 0 0 0 1 0V47.18a.5.5 0 0 0-.5-.5Zm0 34.552a.5.5 0 0 0-.5.5v21.356a.5.5 0 0 0 1 0V81.733a.5.5 0 0 0-.5-.5Zm0 34.551a.5.5 0 0 0-.5.5v7.13a.5.5 0 0 0 1 0v-7.13a.5.5 0 0 0-.5-.5ZM3.5 9a.5.5 0 0 0-.5.5v24a.5.5 0 0 0 1 0v-24a.5.5 0 0 0-.5-.5Zm0 37.681a.5.5 0 0 0-.5.5v21.357a.5.5 0 0 0 1 0V47.18a.5.5 0 0 0-.5-.5Zm0 69.103a.5.5 0 0 0-.5.5v7.13a.5.5 0 0 0 1 0v-7.13a.5.5 0 0 0-.5-.5ZM3 81.732a.5.5 0 1 1 1 0v21.357a.5.5 0 0 1-1 0V81.733Z" fill="#95D0B4"/><path fill-rule="evenodd" clip-rule="evenodd" d="M12 39.051c-2.25 0-4.078.024-5.558.132-1.485.108-2.581.297-3.385.611-.788.307-1.278.726-1.585 1.298-.318.59-.472 1.4-.472 2.54H0c0-1.21.159-2.212.591-3.014.442-.822 1.14-1.38 2.102-1.755.946-.37 2.162-.568 3.677-.678 1.52-.11 3.38-.134 5.63-.134s4.11.024 5.63.134c1.515.11 2.731.309 3.677.678.962.375 1.66.933 2.102 1.755.432.802.591 1.804.591 3.014h-1c0-1.14-.154-1.95-.471-2.54-.308-.572-.798-.99-1.586-1.298-.804-.313-1.9-.503-3.386-.611-1.48-.108-3.307-.132-5.557-.132ZM6.442 73.734c1.48-.108 3.308-.131 5.558-.131s4.078.023 5.558.13c1.485.109 2.581.299 3.385.613.788.307 1.278.725 1.585 1.297.319.59.472 1.4.472 2.54h1c0-1.21-.159-2.211-.591-3.014-.442-.822-1.14-1.38-2.102-1.755-.946-.369-2.162-.567-3.677-.677-1.52-.11-3.38-.134-5.63-.134s-4.11.023-5.63.134c-1.515.11-2.731.308-3.677.677-.962.375-1.66.933-2.102 1.755C.159 75.972 0 76.974 0 78.184h1c0-1.141.154-1.95.472-2.541.307-.572.797-.99 1.585-1.297.804-.314 1.9-.504 3.385-.612Zm0 34.551c1.48-.107 3.308-.131 5.558-.131s4.078.024 5.558.131c1.485.108 2.581.298 3.385.612.788.307 1.278.725 1.585 1.297.319.591.472 1.4.472 2.541h1c0-1.21-.159-2.212-.591-3.015-.442-.821-1.14-1.379-2.102-1.755-.946-.369-2.162-.567-3.677-.677-1.52-.111-3.38-.134-5.63-.134s-4.11.023-5.63.134c-1.515.11-2.731.308-3.677.677-.962.376-1.66.934-2.102 1.755-.432.803-.591 1.805-.591 3.015h1c0-1.141.154-1.95.472-2.541.307-.572.797-.99 1.585-1.297.804-.314 1.9-.504 3.385-.612Z" fill="#42946E"/><defs><linearGradient id="1kjjjp0qna" x1="12" y1="0" x2="12" y2="145" gradientUnits="userSpaceOnUse"><stop stop-color="#081A11"/><stop offset="1" stop-color="#0F613A"/></linearGradient><linearGradient id="xpj05vtwdb" x1="10.5" y1="184" x2="10.5" y2="138.718" gradientUnits="userSpaceOnUse"><stop offset=".115" stop-color="#fff" stop-opacity="0"/><stop offset=".531" stop-color="#999" stop-opacity=".448"/><stop offset="1" stop-color="#fff" stop-opacity=".4"/></linearGradient></defs></svg>