<svg width="1024" height="1024" viewBox="0 0 1024 1024" fill="none" xmlns="http://www.w3.org/2000/svg">
<g clip-path="url(#clip0_134_107)">
<path d="M4.756 438.175C2.31661 455.272 0.729316 472.48 0 489.735H777.799C775.083 484.429 771.434 479.645 767.754 474.963C634.784 303.172 563.256 318.067 460.935 313.703C426.821 312.3 403.686 311.736 267.898 311.736C195.221 311.736 116.21 311.921 39.27 312.126C29.31 339.01 19.704 365.068 15.027 386.266H413.598V438.175H4.756ZM783.93 541.696H0.399C1.219 555.547 2.511 569.213 4.377 582.695H727.767C760.015 582.695 778.067 564.398 783.93 541.696ZM45.017 724.306C45.017 724.306 164.941 1018.77 511.46 1024C718.572 1024 896.531 900.994 977.367 724.306H45.017Z" fill="white"/>
<path d="M511.454 0C319.953 0 153.311 105.16 65.3099 260.612C134.081 260.468 268.014 260.386 268.014 260.386H268.045V260.335C426.354 260.335 432.238 261.042 463.163 262.333L482.312 263.039C549.012 265.263 630.995 272.423 695.502 321.229C730.517 347.7 781.073 406.125 811.21 447.749C839.071 486.248 847.086 530.505 828.143 572.907C810.707 611.877 773.191 635.122 727.76 635.122H16.6899C16.6899 635.122 20.9229 653.066 27.2699 672.873H997.902C1015.14 621.062 1023.95 566.821 1024 512.218C1024.01 229.355 794.532 0 511.454 0Z" fill="white"/>
</g>
<defs>
<clipPath id="clip0_134_107">
<rect width="1024" height="1024" fill="white"/>
</clipPath>
</defs>
</svg>
